<svg xmlns="http://www.w3.org/2000/svg" viewBox="0 0 206 256"><defs><style>.cls-1{fill:#d700e7;}.cls-2{fill:#fff;}</style></defs><g id="Capa_2" data-name="Capa 2"><g id="Capa_2-2" data-name="Capa 2"><rect class="cls-1" width="206" height="256" rx="28.53"/><rect class="cls-2" x="17" y="90" width="78" height="60" rx="12"/><rect class="cls-2" x="17" y="166" width="78" height="60" rx="12"/><path class="cls-1" d="M65,212.85,55.41,203l-10.35,9.91-7.54-7.83,9.72-9.91L37.22,185l7.83-7.58,10,9.93,10.25-10.12,8,7.49L62.85,195.32l10.89,10.13Z"/><path class="cls-1" d="M50.69,125.54H36V114.45l14.69-.23V99.7H61.6v14.43H76.25v11.14H62v14.27c-3.85,1.21-7.21.72-11.27.42Z"/><rect class="cls-2" x="17" y="20" width="171" height="54" rx="12"/><rect class="cls-2" x="110" y="90" width="78" height="60" rx="12"/><rect class="cls-2" x="110" y="166" width="78" height="60" rx="12"/><path class="cls-1" d="M169,115.28v10.35H128.72V115.28Z"/><path class="cls-1" d="M169,191.28v10.35H128.72V191.28Z"/><path class="cls-1" d="M145,215.28v-7.8h7.73v7.8Z"/><path class="cls-1" d="M145.1,177.36h7.69V185H145.1Z"/></g></g></svg>